<svg id="visual" viewBox="0 0 4160 800" xmlns="http://www.w3.org/2000/svg" xmlns:xlink="http://www.w3.org/1999/xlink" version="1.1">
	<path d="M0 397L138.7 437.2C277.3 477.3 554.7 557.7 832 578.5C1109.3 599.3 1386.7 560.7 1664 482.5C1941.3 404.3 2218.7 286.7 2496 284.5C2773.3 282.3 3050.7 395.7 3328 391.5C3605.3 387.3 3882.7 265.7 4021.3 204.8L4160 144L4160 801L4021.3 801C3882.7 801 3605.3 801 3328 801C3050.7 801 2773.3 801 2496 801C2218.7 801 1941.3 801 1664 801C1386.7 801 1109.3 801 832 801C554.7 801 277.3 801 138.7 801L0 801Z" fill="#3066be">
	</path>
	<path d="M0 688L138.7 596.7C277.3 505.3 554.7 322.7 832 268.7C1109.3 214.7 1386.7 289.3 1664 392C1941.3 494.7 2218.7 625.3 2496 640.8C2773.3 656.3 3050.7 556.7 3328 504.5C3605.3 452.3 3882.7 447.7 4021.3 445.3L4160 443L4160 801L4021.3 801C3882.7 801 3605.3 801 3328 801C3050.7 801 2773.3 801 2496 801C2218.7 801 1941.3 801 1664 801C1386.7 801 1109.3 801 832 801C554.7 801 277.3 801 138.7 801L0 801Z" fill="#125194">
	</path>
	<path d="M0 613L138.7 571.5C277.3 530 554.7 447 832 442.7C1109.3 438.3 1386.7 512.7 1664 541.7C1941.3 570.7 2218.7 554.3 2496 583.5C2773.3 612.7 3050.7 687.3 3328 677.8C3605.3 668.3 3882.7 574.7 4021.3 527.8L4160 481L4160 801L4021.3 801C3882.7 801 3605.3 801 3328 801C3050.7 801 2773.3 801 2496 801C2218.7 801 1941.3 801 1664 801C1386.7 801 1109.3 801 832 801C554.7 801 277.3 801 138.7 801L0 801Z" fill="#003c6b">
	</path>
	<path d="M0 450L138.7 483.8C277.3 517.7 554.7 585.3 832 579C1109.3 572.7 1386.7 492.3 1664 504.7C1941.3 517 2218.7 622 2496 659.5C2773.3 697 3050.7 667 3328 630.7C3605.3 594.3 3882.7 551.7 4021.3 530.3L4160 509L4160 801L4021.3 801C3882.7 801 3605.3 801 3328 801C3050.7 801 2773.3 801 2496 801C2218.7 801 1941.3 801 1664 801C1386.7 801 1109.3 801 832 801C554.7 801 277.3 801 138.7 801L0 801Z" fill="#002744">
	</path>
	<path d="M0 709L138.7 694.5C277.3 680 554.7 651 832 658C1109.3 665 1386.7 708 1664 723.7C1941.3 739.3 2218.7 727.7 2496 702.7C2773.3 677.7 3050.7 639.3 3328 636C3605.3 632.7 3882.7 664.3 4021.3 680.2L4160 696L4160 801L4021.3 801C3882.7 801 3605.3 801 3328 801C3050.7 801 2773.3 801 2496 801C2218.7 801 1941.3 801 1664 801C1386.7 801 1109.3 801 832 801C554.7 801 277.3 801 138.7 801L0 801Z" fill="#001220">
	</path>
</svg>
